<?xml version="1.0" encoding="UTF-8"?>
<!DOCTYPE svg PUBLIC "-//W3C//DTD SVG 1.1//EN" "http://www.w3.org/Graphics/SVG/1.1/DTD/svg11.dtd">
<svg xmlns="http://www.w3.org/2000/svg" version="1.1" width="1080px" height="1080px" style="shape-rendering:geometricPrecision; text-rendering:geometricPrecision; image-rendering:optimizeQuality; fill-rule:evenodd; clip-rule:evenodd" xmlns:xlink="http://www.w3.org/1999/xlink">
<g><path style="opacity:0.063" fill="#f4f4f4" d="M 590.5,51.5 C 594.182,51.3347 597.848,51.5014 601.5,52C 604.291,54.2888 606.958,56.7888 609.5,59.5C 619.035,75.6572 629.201,91.3239 640,106.5C 640.8,109.867 641.966,113.034 643.5,116C 651.436,117.992 659.436,119.658 667.5,121C 704.606,132.684 738.939,149.684 770.5,172C 776.721,178.221 782.887,184.387 789,190.5C 813.483,242.286 833.816,295.619 850,350.5C 857.963,383.691 865.963,417.025 874,450.5C 881.356,472.226 889.023,493.892 897,515.5C 906.28,535.329 915.947,554.996 926,574.5C 933.421,587.954 941.754,600.954 951,613.5C 952.46,615.972 953.46,618.639 954,621.5C 966.997,638.337 979.83,655.337 992.5,672.5C 993.662,677.131 993.828,681.798 993,686.5C 977.67,701.838 961.17,715.672 943.5,728C 935.902,735.79 927.569,742.623 918.5,748.5C 885.031,777.675 850.364,805.175 814.5,831C 809.833,831.667 805.167,831.667 800.5,831C 798.622,829.457 797.122,827.624 796,825.5C 792.375,813.919 787.709,802.919 782,792.5C 776.015,777.859 770.015,763.192 764,748.5C 751.493,723.631 738.993,698.798 726.5,674C 717.929,659.039 707.763,645.205 696,632.5C 694.365,629.368 692.532,626.368 690.5,623.5C 689.998,622.479 689.332,622.312 688.5,623C 692.461,639.053 695.961,655.219 699,671.5C 709.12,701.053 717.453,731.053 724,761.5C 733.759,795.575 743.426,829.575 753,863.5C 760.504,899.793 767.504,936.459 774,973.5C 774.05,979.01 774.717,984.343 776,989.5C 776.667,995.167 776.667,1000.83 776,1006.5C 768.669,1016.58 758.835,1022.08 746.5,1023C 733.194,1024.67 719.86,1026 706.5,1027C 677.351,1027.13 648.351,1027.97 619.5,1029.5C 579.827,1028.2 540.161,1026.7 500.5,1025C 486.98,1022.7 473.313,1020.7 459.5,1019C 446.834,1016.42 434.5,1013.09 422.5,1009C 408.245,1009.42 396.412,1004.25 387,993.5C 384.969,986.691 384.136,979.691 384.5,972.5C 384.379,966.727 384.879,961.061 386,955.5C 386.333,898.5 386.667,841.5 387,784.5C 388.31,764.19 389.644,743.857 391,723.5C 393.447,719.803 392.947,716.636 389.5,714C 383.5,710.667 377.5,707.333 371.5,704C 366.476,700.396 363.809,695.563 363.5,689.5C 366.571,677.065 368.738,664.398 370,651.5C 370.93,646.401 372.263,641.401 374,636.5C 374.667,634.5 374.667,632.5 374,630.5C 362.795,658.036 353.461,686.036 346,714.5C 342.286,726.077 338.286,737.41 334,748.5C 328.112,773.472 322.112,798.472 316,823.5C 308.727,832.091 299.894,833.924 289.5,829C 283.429,824.259 277.096,819.926 270.5,816C 256.225,805.391 242.558,794.058 229.5,782C 194.415,748.425 161.082,713.591 129.5,677.5C 117,665.167 104.5,652.833 92,640.5C 87.8133,635.221 86.4799,629.221 88,622.5C 93.4345,610.081 100.101,598.414 108,587.5C 113.791,574.586 120.124,561.919 127,549.5C 132.361,536.088 138.027,522.754 144,509.5C 161.862,461.405 178.195,412.739 193,363.5C 205.512,330.461 218.179,297.461 231,264.5C 237.367,251.627 242.367,238.294 246,224.5C 251.909,213.353 257.242,202.02 262,190.5C 263.683,185.451 265.35,180.451 267,175.5C 273.5,170.333 280,165.167 286.5,160C 298.411,153.719 310.411,148.053 322.5,143C 331.42,139.704 340.42,136.704 349.5,134C 370.594,129.55 391.594,124.883 412.5,120C 418.951,110.881 425.784,102.048 433,93.5C 438.5,85.3333 444,77.1667 449.5,69C 462.397,70.3284 475.397,70.6617 488.5,70C 493.5,69 498.5,68 503.5,67C 532.587,64.6935 561.254,60.0268 589.5,53C 590.056,52.6174 590.389,52.1174 590.5,51.5 Z"/></g>
<g><path style="opacity:0.98" fill="#090909" d="M 634.5,122.5 C 630.842,130.04 628.342,138.04 627,146.5C 619.26,211.213 603.927,274.213 581,335.5C 562.309,379.716 539.809,421.883 513.5,462C 515.891,462.287 518.224,462.787 520.5,463.5C 541.81,462.193 563.143,462.36 584.5,464C 607.352,465.779 630.019,468.612 652.5,472.5C 658.378,470.064 664.378,467.897 670.5,466C 672.377,463.749 673.877,461.249 675,458.5C 677.46,450.533 679.793,442.533 682,434.5C 688.668,400.491 695.335,366.491 702,332.5C 710.437,293.291 728.103,258.957 755,229.5C 760.583,221.336 765.916,213.003 771,204.5C 773.522,201.978 776.022,199.478 778.5,197C 735.293,164.561 687.96,139.727 636.5,122.5C 636.611,121.883 636.944,121.383 637.5,121C 646.256,120.964 654.922,121.964 663.5,124C 702.389,135.612 738.055,153.278 770.5,177C 776.306,181.473 781.473,186.64 786,192.5C 812.273,248.318 833.607,305.985 850,365.5C 858.388,403.422 868.055,441.089 879,478.5C 888.151,502.123 897.817,525.457 908,548.5C 913.738,557.797 918.738,567.463 923,577.5C 925.333,580.5 927.667,583.5 930,586.5C 933.557,595.943 938.891,604.276 946,611.5C 947.568,616.875 949.901,621.875 953,626.5C 965.667,643.167 978.333,659.833 991,676.5C 991.667,678.833 991.667,681.167 991,683.5C 975.039,698.467 958.206,712.3 940.5,725C 900.657,759.518 859.657,792.518 817.5,824C 814.572,825.38 811.738,826.88 809,828.5C 805.442,828.268 802.442,826.935 800,824.5C 797.667,817.5 795.333,810.5 793,803.5C 783.822,783.653 774.822,763.653 766,743.5C 756.918,724.336 747.584,705.336 738,686.5C 731.505,674.172 724.505,662.172 717,650.5C 710.093,642.349 703.426,634.016 697,625.5C 691.507,615.299 685.84,605.299 680,595.5C 684.602,620.177 689.602,644.844 695,669.5C 705.803,704.514 715.47,739.847 724,775.5C 733.09,807.389 742.09,839.389 751,871.5C 756.667,901.167 762.333,930.833 768,960.5C 770.493,974.439 772.159,988.439 773,1002.5C 770.406,1009.43 765.573,1013.93 758.5,1016C 739.069,1020.31 719.402,1022.98 699.5,1024C 650.84,1025.36 602.173,1025.69 553.5,1025C 550.629,1024.88 547.962,1024.22 545.5,1023C 508.245,1023.03 471.578,1018.36 435.5,1009C 430.08,1007.46 424.747,1005.63 419.5,1003.5C 416.972,1004.94 414.305,1005.44 411.5,1005C 402.413,1001.55 394.913,996.052 389,988.5C 388.688,963.967 389.188,939.467 390.5,915C 389.569,878.576 389.403,842.076 390,805.5C 391.502,778.818 393.169,752.151 395,725.5C 395.822,716.753 397.655,708.253 400.5,700C 400.167,699.5 399.833,699 399.5,698.5C 397.453,702.298 395.786,706.298 394.5,710.5C 393.277,711.614 391.944,711.781 390.5,711C 386.912,707.07 382.579,704.403 377.5,703C 375.129,700.294 372.463,697.961 369.5,696C 368.07,694.093 367.404,691.926 367.5,689.5C 371.3,673.633 374.466,657.633 377,641.5C 378.333,637.5 379.667,633.5 381,629.5C 387.09,617.653 392.923,605.653 398.5,593.5C 396.713,592.684 395.046,591.684 393.5,590.5C 391.443,592.269 389.61,594.269 388,596.5C 381.396,610.718 374.062,624.384 366,637.5C 348.318,688.547 332.651,740.214 319,792.5C 317.972,803.326 315.305,813.66 311,823.5C 306.86,828.211 301.694,829.711 295.5,828C 282.577,819.418 269.91,810.418 257.5,801C 214.329,762.162 173.495,720.995 135,677.5C 120.333,662.167 105.667,646.833 91,631.5C 90.8333,630.333 90.6667,629.167 90.5,628C 97.9788,611.792 106.479,595.959 116,580.5C 128.764,554.973 140.431,528.973 151,502.5C 167.845,455.137 183.845,407.471 199,359.5C 217.184,313.29 235.184,266.957 253,220.5C 257.92,207.814 263.587,195.48 270,183.5C 270.529,181.415 270.029,179.582 268.5,178C 268.645,177.228 268.978,176.561 269.5,176C 276.539,173.64 282.539,169.64 287.5,164C 300.039,156.898 313.039,150.564 326.5,145C 340.734,140.255 355.067,135.921 369.5,132C 385.411,129.543 401.244,126.709 417,123.5C 418.582,122.705 418.749,121.538 417.5,120C 430.202,103.989 442.036,87.4894 453,70.5C 461.167,74.0952 469.667,75.2619 478.5,74C 500.357,70.518 522.357,67.8513 544.5,66C 556.811,63.6674 569.145,61.3341 581.5,59C 587.58,56.1061 593.914,54.7728 600.5,55C 606.209,61.0416 610.709,67.8749 614,75.5C 622.247,86.993 630.247,98.6596 638,110.5C 638.553,115.008 637.386,119.008 634.5,122.5 Z"/></g>
<g><path style="opacity:1" fill="#fbfbfb" d="M 596.5,69.5 C 598.121,69.7869 599.121,70.7869 599.5,72.5C 596.036,81.2279 593.37,90.2279 591.5,99.5C 576.146,99.3562 560.813,99.8562 545.5,101C 523.825,104.285 502.158,107.452 480.5,110.5C 477.989,110.712 475.822,110.045 474,108.5C 470.446,101.328 466.612,94.3277 462.5,87.5C 488.529,85.5086 514.529,83.0086 540.5,80C 547.609,79.2042 554.609,77.8708 561.5,76C 568.5,75.6667 575.5,75.3333 582.5,75C 587.342,73.3489 592.009,71.5156 596.5,69.5 Z"/></g>
<g><path style="opacity:1" fill="#fcfcfc" d="M 607.5,84.5 C 609.074,84.9371 610.241,85.9371 611,87.5C 616.452,97.2744 622.286,106.774 628.5,116C 624.835,122.504 622.001,129.337 620,136.5C 615.634,160.385 611.634,184.385 608,208.5C 589.452,300.194 553.452,384.194 500,460.5C 498.066,463.688 495.232,465.188 491.5,465C 477.089,465.461 462.756,466.461 448.5,468C 462.279,447.888 476.445,428.055 491,408.5C 512.898,375.036 531.898,340.036 548,303.5C 556.131,278.642 563.798,253.642 571,228.5C 581.618,180.028 593.784,132.028 607.5,84.5 Z"/></g>
<g><path style="opacity:1" fill="#fcfcfc" d="M 452.5,87.5 C 453.79,88.0577 454.623,89.0577 455,90.5C 461.339,111.849 468.672,132.849 477,153.5C 497.261,197.958 518.095,242.125 539.5,286C 529.956,309.644 519.456,332.811 508,355.5C 489.279,325.649 474.612,293.982 464,260.5C 452.92,222.773 444.253,184.439 438,145.5C 435.859,136.576 433.025,127.91 429.5,119.5C 437.933,109.398 445.599,98.7313 452.5,87.5 Z"/></g>
<g><path style="opacity:1" fill="#fcfcfc" d="M 554.5,109.5 C 565.167,109.5 575.833,109.5 586.5,109.5C 581.684,127.094 577.018,144.76 572.5,162.5C 550.111,167.615 527.445,169.282 504.5,167.5C 497.346,151.195 489.68,135.195 481.5,119.5C 505.824,115.253 530.157,111.919 554.5,109.5 Z"/></g>
<g><path style="opacity:1" fill="#fefefe" d="M 634.5,122.5 C 635.167,122.5 635.833,122.5 636.5,122.5C 687.96,139.727 735.293,164.561 778.5,197C 776.022,199.478 773.522,201.978 771,204.5C 765.916,213.003 760.583,221.336 755,229.5C 728.103,258.957 710.437,293.291 702,332.5C 695.335,366.491 688.668,400.491 682,434.5C 679.793,442.533 677.46,450.533 675,458.5C 673.877,461.249 672.377,463.749 670.5,466C 664.378,467.897 658.378,470.064 652.5,472.5C 630.019,468.612 607.352,465.779 584.5,464C 563.143,462.36 541.81,462.193 520.5,463.5C 518.224,462.787 515.891,462.287 513.5,462C 539.809,421.883 562.309,379.716 581,335.5C 603.927,274.213 619.26,211.213 627,146.5C 628.342,138.04 630.842,130.04 634.5,122.5 Z"/></g>
<g><path style="opacity:1" fill="#fefefe" d="M 420.5,126.5 C 421.5,126.5 422.5,126.5 423.5,126.5C 425.355,134.236 427.522,141.902 430,149.5C 438.309,206.068 453.309,260.734 475,313.5C 483.163,329.836 492.33,345.503 502.5,360.5C 482.402,397.859 459.402,433.359 433.5,467C 425.813,467.268 418.147,467.768 410.5,468.5C 405.926,467.212 401.593,465.379 397.5,463C 390.784,450.198 385.617,436.698 382,422.5C 376.101,392.447 369.767,362.447 363,332.5C 358.282,316.411 351.949,301.077 344,286.5C 330,265.167 316,243.833 302,222.5C 296.03,209.709 289.864,197.042 283.5,184.5C 308.369,171.567 333.703,159.4 359.5,148C 380.443,142.298 400.776,135.132 420.5,126.5 Z"/></g>
<g><path style="opacity:1" fill="#fafafa" d="M 562.5,172.5 C 564.857,172.337 567.19,172.503 569.5,173C 564.701,188.293 560.701,203.793 557.5,219.5C 547.459,218.495 537.459,217.162 527.5,215.5C 521.778,202.67 516.445,189.67 511.5,176.5C 525.526,176.7 539.526,176.2 553.5,175C 556.628,174.159 559.628,173.325 562.5,172.5 Z"/></g>
<g><path style="opacity:1" fill="#fdfdfd" d="M 277.5,193.5 C 278.458,193.953 279.292,194.619 280,195.5C 285.85,209.534 292.517,223.201 300,236.5C 311.085,253.672 322.419,270.672 334,287.5C 345.163,307.658 353.163,328.991 358,351.5C 363.149,377.093 367.816,402.759 372,428.5C 373.999,436.664 376.499,444.664 379.5,452.5C 355.423,444.94 331.423,436.107 307.5,426C 273.267,410.767 239.267,395.267 205.5,379.5C 228.508,317.145 252.508,255.145 277.5,193.5 Z"/></g>
<g><path style="opacity:1" fill="#fbfbfb" d="M 776.5,213.5 C 777.822,213.33 778.989,213.663 780,214.5C 787.336,231.178 794.669,247.845 802,264.5C 802.667,265.833 802.667,267.167 802,268.5C 771.366,294.857 745.7,325.191 725,359.5C 719.07,371.75 712.736,383.75 706,395.5C 705.02,378 706.354,360.667 710,343.5C 717.52,301.204 735.52,264.204 764,232.5C 768.389,226.284 772.556,219.951 776.5,213.5 Z"/></g>
<g><path style="opacity:1" fill="#f7f7f7" d="M 530.5,226.5 C 531.964,225.84 533.631,225.507 535.5,225.5C 541.753,226.892 548.086,227.559 554.5,227.5C 552.214,237.593 549.548,247.593 546.5,257.5C 541.066,247.108 535.733,236.775 530.5,226.5 Z"/></g>
<g><path style="opacity:1" fill="#fbfbfb" d="M 202.5,387.5 C 245.631,408.313 289.464,427.646 334,445.5C 349.762,450.73 365.595,455.563 381.5,460C 383.554,462.461 385.054,465.294 386,468.5C 393.266,473.258 401.266,476.258 410,477.5C 411.436,477.441 412.769,477.108 414,476.5C 412.643,483.124 411.143,489.791 409.5,496.5C 374.709,482.847 339.375,470.68 303.5,460C 279.75,454.317 255.75,449.65 231.5,446C 219.018,444.304 206.518,444.137 194,445.5C 191.37,445.536 188.87,445.036 186.5,444C 185.418,438.775 185.918,433.608 188,428.5C 192.687,414.737 197.52,401.07 202.5,387.5 Z"/></g>
<g><path style="opacity:1" fill="#fdfdfd" d="M 803.5,276.5 C 805.752,276.916 807.252,278.249 808,280.5C 820.458,315.113 831.792,350.113 842,385.5C 843.407,393.584 844.74,401.584 846,409.5C 843.833,411.667 841.667,413.833 839.5,416C 825.628,425.533 812.628,436.199 800.5,448C 797.417,449.139 794.417,450.472 791.5,452C 782.357,461.475 772.857,470.642 763,479.5C 760.111,484.397 756.445,488.73 752,492.5C 750.414,494.67 749.08,497.004 748,499.5C 728.022,520.481 708.355,541.814 689,563.5C 687.991,565.025 687.491,566.692 687.5,568.5C 690.016,568.245 692.35,567.411 694.5,566C 702.657,559.755 710.99,553.755 719.5,548C 728.714,538.818 738.214,529.985 748,521.5C 749.24,518.588 750.906,515.921 753,513.5C 767.86,498.64 782.694,483.806 797.5,469C 813.5,456.333 829.5,443.667 845.5,431C 847.217,429.441 849.217,428.608 851.5,428.5C 851.716,437.055 852.883,445.389 855,453.5C 828.256,477.241 802.423,502.074 777.5,528C 774.833,529.667 772.167,531.333 769.5,533C 755.091,546.747 740.091,559.747 724.5,572C 719.167,578 713.833,584 708.5,590C 710.913,590.484 713.246,590.15 715.5,589C 738.126,576.709 758.792,561.709 777.5,544C 779.67,542.414 782.004,541.08 784.5,540C 793.01,530.144 802.677,521.811 813.5,515C 817.203,511.633 820.536,507.966 823.5,504C 835.944,494.059 847.944,483.559 859.5,472.5C 866.905,491.884 874.405,511.217 882,530.5C 895.75,557.667 909.75,584.667 924,611.5C 931.116,624.232 938.616,636.732 946.5,649C 933.522,663.312 919.855,676.978 905.5,690C 903.725,691.439 901.725,692.439 899.5,693C 892.587,700.917 885.253,708.583 877.5,716C 863.871,727.294 850.537,738.961 837.5,751C 829.284,758.714 821.617,766.881 814.5,775.5C 814.833,775.833 815.167,776.167 815.5,776.5C 819.807,774.898 824.14,773.398 828.5,772C 849.617,757.893 869.284,741.893 887.5,724C 890.328,721.752 893.328,719.752 896.5,718C 915.7,699.471 935.034,680.804 954.5,662C 955.784,661.316 956.951,661.483 958,662.5C 963.181,669.011 968.347,675.511 973.5,682C 971.139,685.03 968.139,687.364 964.5,689C 942.37,708.803 919.37,727.47 895.5,745C 867.902,769.124 839.568,792.29 810.5,814.5C 807.339,805.874 804.172,797.207 801,788.5C 781.228,745.621 760.895,702.955 740,660.5C 719.792,632.761 702.126,603.428 687,572.5C 676.287,541.184 669.12,509.184 665.5,476.5C 674.622,476.225 682.122,472.558 688,465.5C 690.232,454.896 693.232,444.563 697,434.5C 709.126,409.583 721.792,384.916 735,360.5C 740.333,352.5 745.667,344.5 751,336.5C 757.241,329.015 763.241,321.348 769,313.5C 780.705,301.297 792.205,288.964 803.5,276.5 Z"/></g>
<g><path style="opacity:1" fill="#fcfcfc" d="M 180.5,452.5 C 210.508,451.001 240.174,453.501 269.5,460C 317.629,470.988 364.629,485.488 410.5,503.5C 404.535,516.093 399.702,529.093 396,542.5C 395.632,543.91 394.799,544.91 393.5,545.5C 323.167,511.916 248.834,492.249 170.5,486.5C 175.075,475.534 178.408,464.201 180.5,452.5 Z"/></g>
<g><path style="opacity:1" fill="#fbfbfb" d="M 507.5,474.5 C 539.552,473.985 571.552,474.819 603.5,477C 621.127,479.822 638.793,482.488 656.5,485C 657.317,493.088 657.817,501.255 658,509.5C 659.469,512.963 660.303,516.63 660.5,520.5C 640.555,517.532 620.555,514.698 600.5,512C 539.75,505.293 479.416,506.126 419.5,514.5C 419.334,505.494 419.5,496.494 420,487.5C 420.374,486.584 420.874,485.75 421.5,485C 450.248,481.156 478.915,477.656 507.5,474.5 Z"/></g>
<g><path style="opacity:1" fill="#fdfdfd" d="M 168.5,491.5 C 246.562,500.797 321.396,521.131 393,552.5C 389.912,562.368 385.912,572.035 381,581.5C 379.297,591.247 375.631,600.247 370,608.5C 362.813,616.867 357.146,626.2 353,636.5C 346.544,659.105 339.21,681.439 331,703.5C 324.641,726.597 317.807,749.597 310.5,772.5C 263.5,735 216.5,697.5 169.5,660C 153.607,645.604 137.274,631.77 120.5,618.5C 120.167,618.833 119.833,619.167 119.5,619.5C 128.018,630.331 137.351,640.497 147.5,650C 200.178,694.686 254.011,737.852 309,779.5C 306.627,791.85 303.794,804.183 300.5,816.5C 278.352,800.419 257.352,782.919 237.5,764C 213.843,740.684 191.343,716.518 170,691.5C 148.651,669.652 127.485,647.652 106.5,625.5C 132.083,583.006 152.75,538.339 168.5,491.5 Z"/></g>
<g><path style="opacity:1" fill="#fcfcfc" d="M 481.5,515.5 C 541.738,513.544 601.405,518.211 660.5,529.5C 663.093,543.768 665.093,558.101 666.5,572.5C 664.667,572.833 662.833,573.167 661,573.5C 632.205,571.034 603.371,568.867 574.5,567C 545.837,565.75 517.17,564.584 488.5,563.5C 489.853,560.755 489.686,558.088 488,555.5C 480.858,546.343 472.024,539.51 461.5,535C 455.411,534.616 449.411,535.282 443.5,537C 442.219,540.543 440.886,544.043 439.5,547.5C 433.994,543.996 427.994,541.663 421.5,540.5C 419.99,533.574 418.99,526.574 418.5,519.5C 439.602,517.369 460.602,516.036 481.5,515.5 Z"/></g>
<g><path style="opacity:1" fill="#eeeeee" d="M 452.5,544.5 C 461.269,545.284 468.769,549.284 475,556.5C 475.346,558.218 475.846,559.885 476.5,561.5C 473.692,565.271 470.692,565.437 467.5,562C 463.29,555.362 458.29,549.529 452.5,544.5 Z"/></g>
<g><path style="opacity:1" fill="#f3f3f3" d="M 427.5,549.5 C 429.012,551.317 431.012,552.317 433.5,552.5C 433.5,553.5 433.5,554.5 433.5,555.5C 435.346,555.222 436.68,555.889 437.5,557.5C 437.289,561.631 435.622,564.964 432.5,567.5C 430.885,560.547 426.552,556.88 419.5,556.5C 420.537,564.26 417.87,570.427 411.5,575C 408.333,577.5 405.167,580 402,582.5C 402.667,577.833 402.667,573.167 402,568.5C 407.783,563.018 412.949,557.184 417.5,551C 421.025,550.821 424.359,550.321 427.5,549.5 Z"/></g>
<g><path style="opacity:1" fill="#f6f6f6" d="M 443.5,549.5 C 448.378,551.539 452.212,554.873 455,559.5C 466.313,577.46 474.313,596.793 479,617.5C 480.788,628.187 482.622,638.854 484.5,649.5C 478.771,649.788 473.104,649.454 467.5,648.5C 466.507,637.726 465.007,627.059 463,616.5C 455.858,598.612 450.858,579.945 448,560.5C 445.928,557.029 444.428,553.362 443.5,549.5 Z"/></g>
<g><path style="opacity:1" fill="#f5f5f5" d="M 440.5,570.5 C 442.262,578.63 443.595,586.964 444.5,595.5C 439.027,595.633 433.693,594.966 428.5,593.5C 428.85,588.027 429.85,582.694 431.5,577.5C 434.75,575.388 437.75,573.055 440.5,570.5 Z"/></g>
<g><path style="opacity:1" fill="#f7f7f7" d="M 485.5,572.5 C 536.061,577.969 586.728,582.636 637.5,586.5C 605.824,592.793 573.824,596.626 541.5,598C 522.441,598.913 503.441,598.246 484.5,596C 481.683,591.885 480.517,587.385 481,582.5C 483.324,579.52 484.824,576.187 485.5,572.5 Z"/></g>
<g><path style="opacity:1" fill="#dadada" d="M 419.5,579.5 C 420.239,579.369 420.906,579.536 421.5,580C 420.292,582.25 418.959,584.417 417.5,586.5C 417.167,586 416.833,585.5 416.5,585C 417.741,583.269 418.741,581.436 419.5,579.5 Z"/></g>
<g><path style="opacity:1" fill="#fcfcfc" d="M 662.5,588.5 C 665.5,588.5 668.5,588.5 671.5,588.5C 672.788,607.576 674.788,626.576 677.5,645.5C 617.447,652.535 557.28,654.202 497,650.5C 496.333,643.833 495.667,637.167 495,630.5C 491.936,621.14 488.769,611.807 485.5,602.5C 545.275,607.096 604.275,602.429 662.5,588.5 Z"/></g>
<g><path style="opacity:1" fill="#f6f6f6" d="M 413.5,591.5 C 414.833,591.5 416.167,591.5 417.5,591.5C 413.472,616.415 408.305,641.082 402,665.5C 401.612,677.269 397.612,687.603 390,696.5C 387.358,694.858 385.025,692.858 383,690.5C 387.836,655.828 398.002,622.828 413.5,591.5 Z"/></g>
<g><path style="opacity:1" fill="#f7f7f7" d="M 446.5,611.5 C 446.5,613.167 446.5,614.833 446.5,616.5C 444.833,616.5 443.167,616.5 441.5,616.5C 435.5,616.5 429.5,616.5 423.5,616.5C 424.131,612.196 424.631,607.863 425,603.5C 425.36,601.579 426.194,599.912 427.5,598.5C 433.195,601.002 439.195,602.335 445.5,602.5C 446.159,605.455 446.492,608.455 446.5,611.5 Z"/></g>
<g><path style="opacity:1" fill="#888888" d="M 446.5,611.5 C 447.461,613.265 447.795,615.265 447.5,617.5C 445.265,617.795 443.265,617.461 441.5,616.5C 443.167,616.5 444.833,616.5 446.5,616.5C 446.5,614.833 446.5,613.167 446.5,611.5 Z"/></g>
<g><path style="opacity:1" fill="#f9f9f9" d="M 422.5,619.5 C 430.722,621.403 439.055,622.737 447.5,623.5C 447.644,631.51 447.977,639.51 448.5,647.5C 439.327,646.732 430.327,645.065 421.5,642.5C 420.922,634.839 421.255,627.172 422.5,619.5 Z"/></g>
<g><path style="opacity:1" fill="#fafafa" d="M 419.5,650.5 C 428.856,651.741 438.19,653.075 447.5,654.5C 446.046,677.82 444.713,701.153 443.5,724.5C 433.457,723.039 423.79,720.372 414.5,716.5C 414.167,714.667 413.833,712.833 413.5,711C 415.314,690.792 417.314,670.626 419.5,650.5 Z"/></g>
<g><path style="opacity:1" fill="#fcfcfc" d="M 669.5,652.5 C 673.437,652.207 677.27,652.54 681,653.5C 683.066,667.432 686.233,681.098 690.5,694.5C 690.291,695.994 689.624,697.161 688.5,698C 643.233,708.146 597.399,713.312 551,713.5C 535.14,713.33 519.307,712.664 503.5,711.5C 501.336,694.185 499.336,676.852 497.5,659.5C 537.174,660.812 576.841,660.645 616.5,659C 634.396,657.48 652.063,655.314 669.5,652.5 Z"/></g>
<g><path style="opacity:1" fill="#f8f8f8" d="M 470.5,657.5 C 475.833,657.5 481.167,657.5 486.5,657.5C 489.042,679.875 491.542,702.208 494,724.5C 491.603,727.4 488.77,729.733 485.5,731.5C 483.545,729.488 482.045,727.154 481,724.5C 475.137,702.546 471.637,680.213 470.5,657.5 Z"/></g>
<g><path style="opacity:1" fill="#919191" d="M 463.5,658.5 C 462.833,660.833 462.167,663.167 461.5,665.5C 461.187,662.753 461.52,660.086 462.5,657.5C 463.107,657.624 463.44,657.957 463.5,658.5 Z"/></g>
<g><path style="opacity:1" fill="#f1f1f1" d="M 463.5,658.5 C 464.749,671.992 466.916,685.325 470,698.5C 470.499,702.486 470.666,706.486 470.5,710.5C 466.193,709.673 461.86,709.007 457.5,708.5C 459.24,694.212 460.574,679.878 461.5,665.5C 462.167,663.167 462.833,660.833 463.5,658.5 Z"/></g>
<g><path style="opacity:1" fill="#fafafa" d="M 690.5,704.5 C 691.5,704.5 692.5,704.5 693.5,704.5C 693.754,712.285 695.588,719.618 699,726.5C 699.758,728.769 699.591,730.936 698.5,733C 682.781,735.449 667.115,738.116 651.5,741C 600.709,744.889 550.042,743.056 499.5,735.5C 501.138,732.696 502.971,730.029 505,727.5C 505.769,724.901 505.602,722.401 504.5,720C 515.995,720.193 527.495,720.693 539,721.5C 577.583,720.619 616.083,717.452 654.5,712C 666.794,710.234 678.794,707.734 690.5,704.5 Z"/></g>
<g><path style="opacity:1" fill="#eeeeee" d="M 455.5,715.5 C 460.093,716.185 464.593,717.185 469,718.5C 470.207,723.95 471.707,729.283 473.5,734.5C 467.11,733.824 460.777,732.824 454.5,731.5C 454.98,726.178 455.313,720.845 455.5,715.5 Z"/></g>
<g><path style="opacity:1" fill="#fafafa" d="M 412.5,724.5 C 422.065,727.444 431.732,730.111 441.5,732.5C 442.457,746.188 442.124,759.855 440.5,773.5C 430.033,771.908 419.866,769.241 410,765.5C 410.539,751.839 411.372,738.172 412.5,724.5 Z"/></g>
<g><path style="opacity:1" fill="#fafafa" d="M 455.5,738.5 C 464.791,739.899 474.125,741.065 483.5,742C 484.645,743.859 486.312,744.693 488.5,744.5C 491.315,744.017 494.148,743.683 497,743.5C 544.693,749.555 592.526,751.055 640.5,748C 659.124,745.821 677.624,742.987 696,739.5C 697.981,739.629 699.647,740.296 701,741.5C 702.406,747.077 703.239,752.743 703.5,758.5C 675.888,764.181 647.888,767.681 619.5,769C 563.488,770.863 508.154,767.697 453.5,759.5C 452.872,752.087 453.539,745.087 455.5,738.5 Z"/></g>
<g><path style="opacity:1" fill="#888888" d="M 455.5,738.5 C 453.539,745.087 452.872,752.087 453.5,759.5C 452.508,752.352 452.175,745.019 452.5,737.5C 453.791,737.263 454.791,737.596 455.5,738.5 Z"/></g>
<g><path style="opacity:1" fill="#f8f8f8" d="M 451.5,765.5 C 495.107,773.564 539.107,778.231 583.5,779.5C 601.564,779.329 619.564,778.162 637.5,776C 660.902,772.822 684.236,769.322 707.5,765.5C 707.868,770.557 708.535,775.557 709.5,780.5C 647.328,795.266 584.328,799.433 520.5,793C 497.449,790.042 474.449,786.875 451.5,783.5C 451.5,777.5 451.5,771.5 451.5,765.5 Z"/></g>
<g><path style="opacity:1" fill="#fafafa" d="M 408.5,773.5 C 418.409,776.311 428.409,778.811 438.5,781C 439.059,781.725 439.392,782.558 439.5,783.5C 435.389,830.496 431.222,877.496 427,924.5C 425.061,945.071 421.728,965.404 417,985.5C 416.64,987.421 415.806,989.088 414.5,990.5C 409.695,988.008 405.528,984.675 402,980.5C 404.156,911.429 406.323,842.429 408.5,773.5 Z"/></g>
<g><path style="opacity:1" fill="#fdfdfd" d="M 707.5,787.5 C 711.73,786.563 714.23,788.229 715,792.5C 721.58,815.373 728.58,838.04 736,860.5C 737.51,874.805 739.677,888.971 742.5,903C 742.415,904.107 742.081,905.107 741.5,906C 723.644,909.031 705.644,910.698 687.5,911C 604.617,912.44 521.95,908.94 439.5,900.5C 443.935,863.942 447.269,827.275 449.5,790.5C 493.257,798.292 537.424,802.626 582,803.5C 624.709,803.513 666.542,798.18 707.5,787.5 Z"/></g>
<g><path style="opacity:1" fill="#fdfdfd" d="M 437.5,907.5 C 488.041,913.076 538.707,917.242 589.5,920C 627.51,920.772 665.51,920.439 703.5,919C 713.576,918.106 723.576,916.772 733.5,915C 744.285,911.467 749.785,915.3 750,926.5C 752.719,944.145 755.219,961.812 757.5,979.5C 740.487,981.346 723.487,983.179 706.5,985C 647.053,986.194 587.72,984.194 528.5,979C 496.852,975.214 465.185,971.547 433.5,968C 432.873,966.262 432.54,964.429 432.5,962.5C 433.794,944.125 435.461,925.791 437.5,907.5 Z"/></g>
<g><path style="opacity:1" fill="#fbfbfb" d="M 430.5,973.5 C 526.772,991.567 623.772,997.4 721.5,991C 733.599,989.706 745.599,987.872 757.5,985.5C 758.086,985.709 758.586,986.043 759,986.5C 759.424,992.536 760.924,998.203 763.5,1003.5C 711.579,1012.73 659.245,1016.23 606.5,1014C 570.77,1013.31 535.103,1011.65 499.5,1009C 475.022,1005.23 450.688,1000.73 426.5,995.5C 426.892,987.944 428.226,980.61 430.5,973.5 Z"/></g>
</svg>
